<?xml version="1.0" encoding="utf-8" standalone="no"?>
<!DOCTYPE svg PUBLIC "-//W3C//DTD SVG 1.1//EN"
  "http://www.w3.org/Graphics/SVG/1.1/DTD/svg11.dtd">
<svg xmlns:xlink="http://www.w3.org/1999/xlink" width="526.79952pt" height="209.99952pt" viewBox="0 0 526.79952 209.99952" xmlns="http://www.w3.org/2000/svg" version="1.1">
 <metadata>
  <rdf:RDF xmlns:dc="http://purl.org/dc/elements/1.1/" xmlns:cc="http://creativecommons.org/ns#" xmlns:rdf="http://www.w3.org/1999/02/22-rdf-syntax-ns#">
   <cc:Work>
    <dc:type rdf:resource="http://purl.org/dc/dcmitype/StillImage"/>
    <dc:date>2026-07-27T22:41:34.345586</dc:date>
    <dc:format>image/svg+xml</dc:format>
    <dc:creator>
     <cc:Agent>
      <dc:title>Matplotlib v3.10.9, https://matplotlib.org/</dc:title>
     </cc:Agent>
    </dc:creator>
   </cc:Work>
  </rdf:RDF>
 </metadata>
 <defs>
  <style type="text/css">*{stroke-linejoin: round; stroke-linecap: butt}</style>
 </defs>
 <g id="figure_1">
  <g id="patch_1">
   <path d="M 0 209.99952 
L 526.79952 209.99952 
L 526.79952 0 
L 0 0 
z
" style="fill: #ffffff"/>
  </g>
  <g id="axes_1">
   <g id="patch_2">
    <path d="M 34.331719 178.996082 
L 260.39952 178.996082 
L 260.39952 33.766605 
L 34.331719 33.766605 
z
" style="fill: #ffffff"/>
   </g>
   <g id="matplotlib.axis_1">
    <g id="xtick_1">
     <g id="line2d_1">
      <defs>
       <path id="m85a4ea9c25" d="M 0 0 
L 0 3.5 
" style="stroke: #000000; stroke-width: 0.8"/>
      </defs>
      <g>
       <use xlink:href="#m85a4ea9c25" x="44.607528" y="178.996082" style="stroke: #000000; stroke-width: 0.8"/>
      </g>
     </g>
     <g id="text_1">
      <text style="font-size: 7px; font-family: 'Arial', 'Helvetica', 'DejaVu Sans', sans-serif; text-anchor: middle" x="44.607528" y="191.006551" transform="rotate(-0 44.607528 191.006551)">0.0</text>
     </g>
    </g>
    <g id="xtick_2">
     <g id="line2d_2">
      <g>
       <use xlink:href="#m85a4ea9c25" x="85.710764" y="178.996082" style="stroke: #000000; stroke-width: 0.8"/>
      </g>
     </g>
     <g id="text_2">
      <text style="font-size: 7px; font-family: 'Arial', 'Helvetica', 'DejaVu Sans', sans-serif; text-anchor: middle" x="85.710764" y="191.006551" transform="rotate(-0 85.710764 191.006551)">0.2</text>
     </g>
    </g>
    <g id="xtick_3">
     <g id="line2d_3">
      <g>
       <use xlink:href="#m85a4ea9c25" x="126.814001" y="178.996082" style="stroke: #000000; stroke-width: 0.8"/>
      </g>
     </g>
     <g id="text_3">
      <text style="font-size: 7px; font-family: 'Arial', 'Helvetica', 'DejaVu Sans', sans-serif; text-anchor: middle" x="126.814001" y="191.006551" transform="rotate(-0 126.814001 191.006551)">0.4</text>
     </g>
    </g>
    <g id="xtick_4">
     <g id="line2d_4">
      <g>
       <use xlink:href="#m85a4ea9c25" x="167.917238" y="178.996082" style="stroke: #000000; stroke-width: 0.8"/>
      </g>
     </g>
     <g id="text_4">
      <text style="font-size: 7px; font-family: 'Arial', 'Helvetica', 'DejaVu Sans', sans-serif; text-anchor: middle" x="167.917238" y="191.006551" transform="rotate(-0 167.917238 191.006551)">0.6</text>
     </g>
    </g>
    <g id="xtick_5">
     <g id="line2d_5">
      <g>
       <use xlink:href="#m85a4ea9c25" x="209.020474" y="178.996082" style="stroke: #000000; stroke-width: 0.8"/>
      </g>
     </g>
     <g id="text_5">
      <text style="font-size: 7px; font-family: 'Arial', 'Helvetica', 'DejaVu Sans', sans-serif; text-anchor: middle" x="209.020474" y="191.006551" transform="rotate(-0 209.020474 191.006551)">0.8</text>
     </g>
    </g>
    <g id="xtick_6">
     <g id="line2d_6">
      <g>
       <use xlink:href="#m85a4ea9c25" x="250.123711" y="178.996082" style="stroke: #000000; stroke-width: 0.8"/>
      </g>
     </g>
     <g id="text_6">
      <text style="font-size: 7px; font-family: 'Arial', 'Helvetica', 'DejaVu Sans', sans-serif; text-anchor: middle" x="250.123711" y="191.006551" transform="rotate(-0 250.123711 191.006551)">1.0</text>
     </g>
    </g>
    <g id="text_7">
     <text style="font-size: 7px; font-family: 'Arial', 'Helvetica', 'DejaVu Sans', sans-serif; text-anchor: middle" x="147.365619" y="201.40827" transform="rotate(-0 147.365619 201.40827)">False-positive rate</text>
    </g>
   </g>
   <g id="matplotlib.axis_2">
    <g id="ytick_1">
     <g id="line2d_7">
      <defs>
       <path id="m826c5bcf46" d="M 0 0 
L -3.5 0 
" style="stroke: #000000; stroke-width: 0.8"/>
      </defs>
      <g>
       <use xlink:href="#m826c5bcf46" x="34.331719" y="172.394743" style="stroke: #000000; stroke-width: 0.8"/>
      </g>
     </g>
     <g id="text_8">
      <text style="font-size: 7px; font-family: 'Arial', 'Helvetica', 'DejaVu Sans', sans-serif; text-anchor: end" x="27.331719" y="174.899977" transform="rotate(-0 27.331719 174.899977)">0.0</text>
     </g>
    </g>
    <g id="ytick_2">
     <g id="line2d_8">
      <g>
       <use xlink:href="#m826c5bcf46" x="34.331719" y="145.989383" style="stroke: #000000; stroke-width: 0.8"/>
      </g>
     </g>
     <g id="text_9">
      <text style="font-size: 7px; font-family: 'Arial', 'Helvetica', 'DejaVu Sans', sans-serif; text-anchor: end" x="27.331719" y="148.494617" transform="rotate(-0 27.331719 148.494617)">0.2</text>
     </g>
    </g>
    <g id="ytick_3">
     <g id="line2d_9">
      <g>
       <use xlink:href="#m826c5bcf46" x="34.331719" y="119.584024" style="stroke: #000000; stroke-width: 0.8"/>
      </g>
     </g>
     <g id="text_10">
      <text style="font-size: 7px; font-family: 'Arial', 'Helvetica', 'DejaVu Sans', sans-serif; text-anchor: end" x="27.331719" y="122.089258" transform="rotate(-0 27.331719 122.089258)">0.4</text>
     </g>
    </g>
    <g id="ytick_4">
     <g id="line2d_10">
      <g>
       <use xlink:href="#m826c5bcf46" x="34.331719" y="93.178664" style="stroke: #000000; stroke-width: 0.8"/>
      </g>
     </g>
     <g id="text_11">
      <text style="font-size: 7px; font-family: 'Arial', 'Helvetica', 'DejaVu Sans', sans-serif; text-anchor: end" x="27.331719" y="95.683898" transform="rotate(-0 27.331719 95.683898)">0.6</text>
     </g>
    </g>
    <g id="ytick_5">
     <g id="line2d_11">
      <g>
       <use xlink:href="#m826c5bcf46" x="34.331719" y="66.773304" style="stroke: #000000; stroke-width: 0.8"/>
      </g>
     </g>
     <g id="text_12">
      <text style="font-size: 7px; font-family: 'Arial', 'Helvetica', 'DejaVu Sans', sans-serif; text-anchor: end" x="27.331719" y="69.278539" transform="rotate(-0 27.331719 69.278539)">0.8</text>
     </g>
    </g>
    <g id="ytick_6">
     <g id="line2d_12">
      <g>
       <use xlink:href="#m826c5bcf46" x="34.331719" y="40.367945" style="stroke: #000000; stroke-width: 0.8"/>
      </g>
     </g>
     <g id="text_13">
      <text style="font-size: 7px; font-family: 'Arial', 'Helvetica', 'DejaVu Sans', sans-serif; text-anchor: end" x="27.331719" y="42.873179" transform="rotate(-0 27.331719 42.873179)">1.0</text>
     </g>
    </g>
    <g id="text_14">
     <text style="font-size: 7px; font-family: 'Arial', 'Helvetica', 'DejaVu Sans', sans-serif; text-anchor: middle" x="12.210469" y="106.381344" transform="rotate(-90 12.210469 106.381344)">True-positive rate</text>
    </g>
   </g>
   <g id="line2d_13">
    <path d="M 44.607528 172.394743 
L 44.607528 171.04753 
L 45.320301 171.04753 
L 45.320301 169.700318 
L 47.221028 169.700318 
L 47.221028 168.353106 
L 47.69621 168.353106 
L 47.69621 167.005894 
L 48.884165 167.005894 
L 48.884165 162.964257 
L 49.834529 162.964257 
L 49.834529 157.575408 
L 52.210439 157.575408 
L 52.210439 156.228196 
L 52.44803 156.228196 
L 52.44803 154.880984 
L 53.398394 154.880984 
L 53.398394 153.533772 
L 55.299121 153.533772 
L 55.299121 152.186559 
L 55.536712 152.186559 
L 55.536712 150.839347 
L 55.774303 150.839347 
L 55.774303 149.492135 
L 56.724667 149.492135 
L 56.724667 148.144923 
L 57.43744 148.144923 
L 57.43744 146.79771 
L 58.387804 146.79771 
L 58.387804 144.103286 
L 58.862986 144.103286 
L 58.862986 140.061649 
L 59.81335 140.061649 
L 59.81335 138.714437 
L 60.288531 138.714437 
L 60.526122 137.367225 
L 61.001304 137.367225 
L 61.001304 136.020013 
L 61.714077 136.020013 
L 61.714077 133.325588 
L 61.951668 133.325588 
L 61.951668 130.631164 
L 65.277942 130.631164 
L 65.277942 129.283952 
L 65.515533 129.283952 
L 65.515533 126.589527 
L 67.41626 126.589527 
L 67.653851 125.242315 
L 67.891442 125.242315 
L 67.891442 122.54789 
L 68.129033 122.54789 
L 68.129033 121.200678 
L 68.604215 121.200678 
L 68.604215 119.853466 
L 69.554579 119.853466 
L 69.554579 118.506254 
L 69.79217 118.506254 
L 69.79217 114.464617 
L 70.029761 114.464617 
L 70.267352 113.117405 
L 70.267352 110.42298 
L 70.504943 110.42298 
L 70.504943 109.075768 
L 71.455307 109.075768 
L 71.455307 107.728556 
L 71.692898 107.728556 
L 71.692898 106.381344 
L 74.306398 106.381344 
L 74.306398 105.034132 
L 75.731944 105.034132 
L 75.731944 102.339707 
L 75.969535 102.339707 
L 75.969535 100.992495 
L 77.15749 100.992495 
L 77.15749 96.950858 
L 78.583036 96.950858 
L 78.583036 95.603646 
L 79.058218 95.603646 
L 79.295808 94.256434 
L 79.533399 94.256434 
L 79.533399 92.909222 
L 79.77099 91.562009 
L 79.77099 90.214797 
L 80.008581 90.214797 
L 80.008581 88.867585 
L 80.246172 88.867585 
L 80.246172 86.17316 
L 80.721354 86.17316 
L 80.958945 84.825948 
L 80.958945 82.131524 
L 81.196536 82.131524 
L 81.196536 80.784312 
L 81.909309 80.784312 
L 81.909309 79.437099 
L 82.384491 79.437099 
L 82.384491 78.089887 
L 82.622082 78.089887 
L 82.622082 75.395463 
L 84.760401 75.395463 
L 84.760401 74.04825 
L 87.13631 74.04825 
L 87.13631 71.353826 
L 90.700175 71.353826 
L 90.700175 70.006614 
L 91.650539 70.006614 
L 91.650539 68.659402 
L 94.026448 68.659402 
L 94.026448 67.312189 
L 95.689585 67.312189 
L 95.689585 64.617765 
L 97.590313 64.617765 
L 97.590313 63.270553 
L 99.49104 63.270553 
L 99.49104 61.92334 
L 100.441404 61.92334 
L 100.441404 60.576128 
L 100.916586 60.576128 
L 100.916586 59.228916 
L 101.86695 59.228916 
L 101.86695 57.881704 
L 105.905996 57.881704 
L 105.905996 56.534492 
L 112.558543 56.534492 
L 112.558543 55.187279 
L 120.636636 55.187279 
L 120.636636 53.840067 
L 127.051592 53.840067 
L 127.051592 52.492855 
L 130.853047 52.492855 
L 130.853047 51.145643 
L 135.129685 51.145643 
L 135.129685 48.451218 
L 136.555231 48.451218 
L 136.555231 47.104006 
L 151.761052 47.104006 
L 151.761052 45.756794 
L 159.363963 45.756794 
L 159.363963 44.409582 
L 165.541328 44.409582 
L 165.778919 43.062369 
L 173.144239 43.062369 
L 173.38183 41.715157 
L 178.608831 41.715157 
L 178.608831 40.367945 
L 250.123711 40.367945 
L 250.123711 40.367945 
" clip-path="url(#p2e98bf9c30)" style="fill: none; stroke: #2b6cb0; stroke-width: 1.5; stroke-linecap: square"/>
   </g>
   <g id="line2d_14">
    <path d="M 44.607528 172.394743 
L 44.607528 171.04753 
L 47.69621 171.04753 
L 47.69621 167.005894 
L 49.121756 167.005894 
L 49.121756 165.658682 
L 49.596938 165.658682 
L 49.596938 164.311469 
L 54.348757 164.311469 
L 54.348757 161.617045 
L 56.724667 161.617045 
L 56.724667 157.575408 
L 57.199849 157.575408 
L 57.199849 156.228196 
L 58.387804 156.228196 
L 58.387804 154.880984 
L 58.625395 154.880984 
L 58.625395 153.533772 
L 60.526122 153.533772 
L 60.526122 152.186559 
L 61.238895 152.186559 
L 61.238895 150.839347 
L 62.42685 150.839347 
L 62.42685 149.492135 
L 62.902032 149.492135 
L 62.902032 148.144923 
L 64.089987 148.144923 
L 64.089987 146.79771 
L 64.327578 146.79771 
L 64.327578 145.450498 
L 74.306398 145.450498 
L 74.306398 144.103286 
L 74.543989 144.103286 
L 74.543989 141.408862 
L 74.78158 141.408862 
L 74.78158 138.714437 
L 77.870263 138.714437 
L 77.870263 137.367225 
L 78.583036 137.367225 
L 78.583036 136.020013 
L 80.958945 136.020013 
L 80.958945 133.325588 
L 81.196536 133.325588 
L 81.196536 131.978376 
L 82.859673 131.978376 
L 82.859673 129.283952 
L 83.334855 129.283952 
L 83.334855 127.936739 
L 88.324265 127.936739 
L 88.324265 125.242315 
L 88.799447 125.242315 
L 88.799447 123.895103 
L 93.076084 123.895103 
L 93.076084 122.54789 
L 94.264039 122.54789 
L 94.264039 121.200678 
L 94.739221 121.200678 
L 94.739221 119.853466 
L 94.976812 119.853466 
L 94.976812 118.506254 
L 95.451994 118.506254 
L 95.451994 117.159042 
L 95.689585 117.159042 
L 95.689585 115.811829 
L 96.402358 115.811829 
L 96.402358 114.464617 
L 97.115131 114.464617 
L 97.115131 113.117405 
L 98.540676 113.117405 
L 98.540676 111.770193 
L 99.253449 111.770193 
L 99.253449 110.42298 
L 99.49104 110.42298 
L 99.49104 109.075768 
L 106.381178 109.075768 
L 106.381178 107.728556 
L 106.618769 107.728556 
L 106.618769 103.686919 
L 108.281906 103.686919 
L 108.281906 102.339707 
L 109.23227 102.339707 
L 109.23227 100.992495 
L 109.707452 100.992495 
L 109.707452 99.645283 
L 109.945043 99.645283 
L 109.945043 98.29807 
L 112.320952 98.29807 
L 112.320952 96.950858 
L 112.558543 96.950858 
L 112.558543 95.603646 
L 113.033725 95.603646 
L 113.033725 94.256434 
L 116.359999 94.256434 
L 116.359999 92.909222 
L 117.785544 92.909222 
L 117.785544 91.562009 
L 118.023135 91.562009 
L 118.023135 90.214797 
L 118.498317 90.214797 
L 118.498317 88.867585 
L 123.487728 88.867585 
L 123.487728 87.520373 
L 124.438091 87.520373 
L 124.438091 86.17316 
L 125.150864 86.17316 
L 125.150864 84.825948 
L 130.853047 84.825948 
L 130.853047 83.478736 
L 133.704139 83.478736 
L 133.704139 82.131524 
L 134.654503 82.131524 
L 134.654503 80.784312 
L 136.792822 80.784312 
L 136.792822 79.437099 
L 137.030412 79.437099 
L 137.030412 78.089887 
L 142.257414 78.089887 
L 142.257414 76.742675 
L 145.821278 76.742675 
L 145.821278 75.395463 
L 147.959597 75.395463 
L 147.959597 74.04825 
L 149.147552 74.04825 
L 149.147552 72.701038 
L 151.998643 72.701038 
L 151.998643 71.353826 
L 153.66178 71.353826 
L 153.66178 70.006614 
L 155.562508 70.006614 
L 155.562508 68.659402 
L 155.800099 68.659402 
L 155.800099 65.964977 
L 160.076736 65.964977 
L 160.076736 64.617765 
L 160.314327 64.617765 
L 160.314327 63.270553 
L 161.502282 63.270553 
L 161.502282 61.92334 
L 166.01651 61.92334 
L 166.01651 60.576128 
L 173.619421 60.576128 
L 173.619421 59.228916 
L 186.686924 59.228916 
L 186.686924 57.881704 
L 192.864289 57.881704 
L 192.864289 56.534492 
L 202.130336 56.534492 
L 202.130336 55.187279 
L 204.506246 55.187279 
L 204.506246 53.840067 
L 205.219019 53.840067 
L 205.219019 52.492855 
L 205.931792 52.492855 
L 205.931792 51.145643 
L 206.644565 51.145643 
L 206.644565 49.79843 
L 207.119747 49.79843 
L 207.119747 48.451218 
L 209.495656 48.451218 
L 209.495656 47.104006 
L 223.751114 47.104006 
L 223.751114 45.756794 
L 227.077387 45.756794 
L 227.077387 44.409582 
L 227.79016 44.409582 
L 227.79016 43.062369 
L 238.244163 43.062369 
L 238.244163 41.715157 
L 246.322255 41.715157 
L 246.322255 40.367945 
L 250.123711 40.367945 
L 250.123711 40.367945 
" clip-path="url(#p2e98bf9c30)" style="fill: none; stroke: #b7791f; stroke-width: 1.5; stroke-linecap: square"/>
   </g>
   <g id="line2d_15">
    <path d="M 44.607528 172.394743 
L 44.607528 168.353106 
L 45.08271 168.353106 
L 45.08271 167.005894 
L 45.320301 167.005894 
L 45.320301 164.311469 
L 46.270665 164.311469 
L 46.270665 162.964257 
L 46.508256 162.964257 
L 46.508256 161.617045 
L 46.745847 161.617045 
L 46.745847 160.269833 
L 46.983438 158.92262 
L 47.221028 158.92262 
L 47.221028 157.575408 
L 47.69621 157.575408 
L 47.69621 154.880984 
L 47.933801 154.880984 
L 47.933801 153.533772 
L 48.171392 153.533772 
L 48.171392 152.186559 
L 48.884165 152.186559 
L 48.884165 150.839347 
L 49.359347 150.839347 
L 49.359347 149.492135 
L 49.596938 149.492135 
L 49.596938 148.144923 
L 49.834529 148.144923 
L 49.834529 146.79771 
L 52.210439 146.79771 
L 52.210439 145.450498 
L 52.923212 145.450498 
L 52.923212 144.103286 
L 53.635984 144.103286 
L 53.635984 142.756074 
L 54.586348 142.756074 
L 54.586348 140.061649 
L 54.823939 138.714437 
L 54.823939 137.367225 
L 55.06153 137.367225 
L 55.06153 136.020013 
L 55.774303 136.020013 
L 55.774303 131.978376 
L 58.387804 131.978376 
L 58.387804 129.283952 
L 58.625395 129.283952 
L 58.625395 127.936739 
L 58.862986 127.936739 
L 58.862986 123.895103 
L 59.100577 123.895103 
L 59.100577 121.200678 
L 59.81335 121.200678 
L 59.81335 119.853466 
L 60.05094 118.506254 
L 60.526122 118.506254 
L 60.526122 115.811829 
L 60.763713 115.811829 
L 60.763713 113.117405 
L 61.238895 113.117405 
L 61.238895 111.770193 
L 61.476486 111.770193 
L 61.476486 109.075768 
L 62.189259 109.075768 
L 62.189259 105.034132 
L 65.277942 105.034132 
L 65.277942 103.686919 
L 66.228306 103.686919 
L 66.228306 100.992495 
L 68.129033 100.992495 
L 68.129033 99.645283 
L 69.316988 99.645283 
L 69.316988 98.29807 
L 69.554579 98.29807 
L 69.554579 96.950858 
L 69.79217 96.950858 
L 69.79217 95.603646 
L 71.217716 95.603646 
L 71.217716 92.909222 
L 71.692898 92.909222 
L 71.692898 91.562009 
L 72.16808 91.562009 
L 72.16808 90.214797 
L 72.405671 90.214797 
L 72.405671 88.867585 
L 73.356034 88.867585 
L 73.356034 84.825948 
L 73.831216 84.825948 
L 73.831216 83.478736 
L 74.068807 83.478736 
L 74.068807 80.784312 
L 75.494353 80.784312 
L 75.494353 79.437099 
L 79.295808 79.437099 
L 79.533399 78.089887 
L 79.533399 76.742675 
L 79.77099 76.742675 
L 79.77099 75.395463 
L 80.483763 75.395463 
L 80.483763 74.04825 
L 80.958945 74.04825 
L 81.671718 70.006614 
L 84.047628 70.006614 
L 84.047628 67.312189 
L 84.52281 67.312189 
L 84.52281 64.617765 
L 85.235583 64.617765 
L 85.235583 63.270553 
L 86.185946 63.270553 
L 86.185946 61.92334 
L 89.037038 61.92334 
L 89.274629 60.576128 
L 90.700175 60.576128 
L 90.700175 59.228916 
L 91.412948 59.228916 
L 91.412948 57.881704 
L 91.650539 57.881704 
L 91.650539 56.534492 
L 101.391768 56.534492 
L 101.391768 55.187279 
L 107.806724 55.187279 
L 107.806724 53.840067 
L 108.757088 53.840067 
L 108.757088 52.492855 
L 108.994679 52.492855 
L 108.994679 51.145643 
L 110.182634 51.145643 
L 110.182634 49.79843 
L 120.161454 49.79843 
L 120.161454 48.451218 
L 120.399045 48.451218 
L 120.399045 47.104006 
L 122.774955 47.104006 
L 122.774955 45.756794 
L 138.93114 45.756794 
L 139.168731 44.409582 
L 140.831868 44.409582 
L 140.831868 43.062369 
L 145.821278 43.062369 
L 145.821278 41.715157 
L 153.66178 41.715157 
L 153.66178 40.367945 
L 250.123711 40.367945 
L 250.123711 40.367945 
" clip-path="url(#p2e98bf9c30)" style="fill: none; stroke: #237a57; stroke-width: 1.5; stroke-linecap: square"/>
   </g>
   <g id="line2d_16">
    <path d="M 44.607528 172.394743 
L 250.123711 40.367945 
" clip-path="url(#p2e98bf9c30)" style="fill: none; stroke-dasharray: 2.96,1.28; stroke-dashoffset: 0; stroke: #a0aec0; stroke-width: 0.8"/>
   </g>
   <g id="patch_3">
    <path d="M 34.331719 178.996082 
L 34.331719 33.766605 
" style="fill: none; stroke: #000000; stroke-width: 0.8; stroke-linejoin: miter; stroke-linecap: square"/>
   </g>
   <g id="patch_4">
    <path d="M 34.331719 178.996082 
L 260.39952 178.996082 
" style="fill: none; stroke: #000000; stroke-width: 0.8; stroke-linejoin: miter; stroke-linecap: square"/>
   </g>
   <g id="text_15">
    <text style="font-size: 8.4px; font-family: 'Arial', 'Helvetica', 'DejaVu Sans', sans-serif; text-anchor: middle" x="147.365619" y="27.766605" transform="rotate(-0 147.365619 27.766605)">a  ROC: new concept-pair classification</text>
   </g>
   <g id="legend_1">
    <g id="text_16">
     <text style="font-size: 6px; font-family: 'Arial', 'Helvetica', 'DejaVu Sans', sans-serif; text-anchor: start" x="213.923895" y="146.511707" transform="rotate(-0 213.923895 146.511707)">ROC AUC</text>
    </g>
    <g id="line2d_17">
     <path d="M 200.186708 152.97202 
L 206.186708 152.97202 
L 212.186708 152.97202 
" style="fill: none; stroke: #2b6cb0; stroke-width: 1.5; stroke-linecap: square"/>
    </g>
    <g id="text_17">
     <text style="font-size: 6px; font-family: 'Arial', 'Helvetica', 'DejaVu Sans', sans-serif; text-anchor: start" x="216.986708" y="155.07202" transform="rotate(-0 216.986708 155.07202)">ML (0.829)</text>
    </g>
    <g id="line2d_18">
     <path d="M 200.186708 161.602645 
L 206.186708 161.602645 
L 212.186708 161.602645 
" style="fill: none; stroke: #b7791f; stroke-width: 1.5; stroke-linecap: square"/>
    </g>
    <g id="text_18">
     <text style="font-size: 6px; font-family: 'Arial', 'Helvetica', 'DejaVu Sans', sans-serif; text-anchor: start" x="216.986708" y="163.702645" transform="rotate(-0 216.986708 163.702645)">Graph (0.654)</text>
    </g>
    <g id="line2d_19">
     <path d="M 200.186708 170.23327 
L 206.186708 170.23327 
L 212.186708 170.23327 
" style="fill: none; stroke: #237a57; stroke-width: 1.5; stroke-linecap: square"/>
    </g>
    <g id="text_19">
     <text style="font-size: 6px; font-family: 'Arial', 'Helvetica', 'DejaVu Sans', sans-serif; text-anchor: start" x="216.986708" y="172.33327" transform="rotate(-0 216.986708 172.33327)">Hybrid (0.871)</text>
    </g>
   </g>
  </g>
  <g id="axes_2">
   <g id="patch_5">
    <path d="M 293.531719 178.996082 
L 519.59952 178.996082 
L 519.59952 33.766605 
L 293.531719 33.766605 
z
" style="fill: #ffffff"/>
   </g>
   <g id="matplotlib.axis_3">
    <g id="xtick_7">
     <g id="line2d_20">
      <g>
       <use xlink:href="#m85a4ea9c25" x="303.807528" y="178.996082" style="stroke: #000000; stroke-width: 0.8"/>
      </g>
     </g>
     <g id="text_20">
      <text style="font-size: 7px; font-family: 'Arial', 'Helvetica', 'DejaVu Sans', sans-serif; text-anchor: middle" x="303.807528" y="191.006551" transform="rotate(-0 303.807528 191.006551)">0.0</text>
     </g>
    </g>
    <g id="xtick_8">
     <g id="line2d_21">
      <g>
       <use xlink:href="#m85a4ea9c25" x="344.910764" y="178.996082" style="stroke: #000000; stroke-width: 0.8"/>
      </g>
     </g>
     <g id="text_21">
      <text style="font-size: 7px; font-family: 'Arial', 'Helvetica', 'DejaVu Sans', sans-serif; text-anchor: middle" x="344.910764" y="191.006551" transform="rotate(-0 344.910764 191.006551)">0.2</text>
     </g>
    </g>
    <g id="xtick_9">
     <g id="line2d_22">
      <g>
       <use xlink:href="#m85a4ea9c25" x="386.014001" y="178.996082" style="stroke: #000000; stroke-width: 0.8"/>
      </g>
     </g>
     <g id="text_22">
      <text style="font-size: 7px; font-family: 'Arial', 'Helvetica', 'DejaVu Sans', sans-serif; text-anchor: middle" x="386.014001" y="191.006551" transform="rotate(-0 386.014001 191.006551)">0.4</text>
     </g>
    </g>
    <g id="xtick_10">
     <g id="line2d_23">
      <g>
       <use xlink:href="#m85a4ea9c25" x="427.117238" y="178.996082" style="stroke: #000000; stroke-width: 0.8"/>
      </g>
     </g>
     <g id="text_23">
      <text style="font-size: 7px; font-family: 'Arial', 'Helvetica', 'DejaVu Sans', sans-serif; text-anchor: middle" x="427.117238" y="191.006551" transform="rotate(-0 427.117238 191.006551)">0.6</text>
     </g>
    </g>
    <g id="xtick_11">
     <g id="line2d_24">
      <g>
       <use xlink:href="#m85a4ea9c25" x="468.220474" y="178.996082" style="stroke: #000000; stroke-width: 0.8"/>
      </g>
     </g>
     <g id="text_24">
      <text style="font-size: 7px; font-family: 'Arial', 'Helvetica', 'DejaVu Sans', sans-serif; text-anchor: middle" x="468.220474" y="191.006551" transform="rotate(-0 468.220474 191.006551)">0.8</text>
     </g>
    </g>
    <g id="xtick_12">
     <g id="line2d_25">
      <g>
       <use xlink:href="#m85a4ea9c25" x="509.323711" y="178.996082" style="stroke: #000000; stroke-width: 0.8"/>
      </g>
     </g>
     <g id="text_25">
      <text style="font-size: 7px; font-family: 'Arial', 'Helvetica', 'DejaVu Sans', sans-serif; text-anchor: middle" x="509.323711" y="191.006551" transform="rotate(-0 509.323711 191.006551)">1.0</text>
     </g>
    </g>
    <g id="text_26">
     <text style="font-size: 7px; font-family: 'Arial', 'Helvetica', 'DejaVu Sans', sans-serif; text-anchor: middle" x="406.565619" y="201.40827" transform="rotate(-0 406.565619 201.40827)">Recall</text>
    </g>
   </g>
   <g id="matplotlib.axis_4">
    <g id="ytick_7">
     <g id="line2d_26">
      <g>
       <use xlink:href="#m826c5bcf46" x="293.531719" y="178.996082" style="stroke: #000000; stroke-width: 0.8"/>
      </g>
     </g>
     <g id="text_27">
      <text style="font-size: 7px; font-family: 'Arial', 'Helvetica', 'DejaVu Sans', sans-serif; text-anchor: end" x="286.531719" y="181.501317" transform="rotate(-0 286.531719 181.501317)">0.0</text>
     </g>
    </g>
    <g id="ytick_8">
     <g id="line2d_27">
      <g>
       <use xlink:href="#m826c5bcf46" x="293.531719" y="150.519714" style="stroke: #000000; stroke-width: 0.8"/>
      </g>
     </g>
     <g id="text_28">
      <text style="font-size: 7px; font-family: 'Arial', 'Helvetica', 'DejaVu Sans', sans-serif; text-anchor: end" x="286.531719" y="153.024949" transform="rotate(-0 286.531719 153.024949)">0.2</text>
     </g>
    </g>
    <g id="ytick_9">
     <g id="line2d_28">
      <g>
       <use xlink:href="#m826c5bcf46" x="293.531719" y="122.043346" style="stroke: #000000; stroke-width: 0.8"/>
      </g>
     </g>
     <g id="text_29">
      <text style="font-size: 7px; font-family: 'Arial', 'Helvetica', 'DejaVu Sans', sans-serif; text-anchor: end" x="286.531719" y="124.548581" transform="rotate(-0 286.531719 124.548581)">0.4</text>
     </g>
    </g>
    <g id="ytick_10">
     <g id="line2d_29">
      <g>
       <use xlink:href="#m826c5bcf46" x="293.531719" y="93.566978" style="stroke: #000000; stroke-width: 0.8"/>
      </g>
     </g>
     <g id="text_30">
      <text style="font-size: 7px; font-family: 'Arial', 'Helvetica', 'DejaVu Sans', sans-serif; text-anchor: end" x="286.531719" y="96.072212" transform="rotate(-0 286.531719 96.072212)">0.6</text>
     </g>
    </g>
    <g id="ytick_11">
     <g id="line2d_30">
      <g>
       <use xlink:href="#m826c5bcf46" x="293.531719" y="65.09061" style="stroke: #000000; stroke-width: 0.8"/>
      </g>
     </g>
     <g id="text_31">
      <text style="font-size: 7px; font-family: 'Arial', 'Helvetica', 'DejaVu Sans', sans-serif; text-anchor: end" x="286.531719" y="67.595844" transform="rotate(-0 286.531719 67.595844)">0.8</text>
     </g>
    </g>
    <g id="ytick_12">
     <g id="line2d_31">
      <g>
       <use xlink:href="#m826c5bcf46" x="293.531719" y="36.614242" style="stroke: #000000; stroke-width: 0.8"/>
      </g>
     </g>
     <g id="text_32">
      <text style="font-size: 7px; font-family: 'Arial', 'Helvetica', 'DejaVu Sans', sans-serif; text-anchor: end" x="286.531719" y="39.119476" transform="rotate(-0 286.531719 39.119476)">1.0</text>
     </g>
    </g>
    <g id="text_33">
     <text style="font-size: 7px; font-family: 'Arial', 'Helvetica', 'DejaVu Sans', sans-serif; text-anchor: middle" x="271.410469" y="106.381344" transform="rotate(-90 271.410469 106.381344)">Precision</text>
    </g>
   </g>
   <g id="line2d_32">
    <path d="M 509.323711 164.506549 
L 509.323711 157.918408 
L 507.226607 158.101924 
L 507.226607 158.006662 
L 507.226607 157.382564 
L 505.129503 157.538223 
L 505.129503 157.436687 
L 505.129503 156.440543 
L 503.032399 156.601588 
L 503.032399 156.527187 
L 503.032399 155.594223 
L 500.935295 155.800427 
L 500.935295 155.719747 
L 500.935295 154.438481 
L 498.838191 154.655069 
L 498.838191 154.56525 
L 498.838191 151.409601 
L 496.741087 151.649257 
L 496.741087 151.592046 
L 496.741087 151.302363 
L 492.54688 151.789361 
L 492.54688 151.731475 
L 492.54688 150.7083 
L 490.449776 150.96072 
L 490.449776 150.898557 
L 490.449776 149.931899 
L 488.352672 150.1924 
L 488.352672 150.126032 
L 488.352672 148.286274 
L 486.255568 148.560652 
L 486.255568 148.485688 
L 486.255568 145.786377 
L 484.158464 146.079851 
L 484.158464 145.991128 
L 484.158464 143.400622 
L 482.06136 143.711953 
L 482.06136 143.608783 
L 482.06136 141.871983 
L 479.964256 142.195853 
L 479.964256 141.737283 
L 477.867152 142.065793 
L 477.867152 141.833527 
L 475.770048 142.165449 
L 475.770048 141.69477 
L 473.672944 142.031566 
L 473.672944 141.058816 
L 471.575841 141.403517 
L 471.575841 140.384058 
L 467.381633 141.092384 
L 467.381633 140.164671 
L 465.284529 140.528006 
L 465.284529 139.129167 
L 463.187425 139.503309 
L 463.187425 138.918231 
L 461.090321 139.298543 
L 461.090321 136.9542 
L 456.896113 137.750549 
L 456.896113 136.046188 
L 454.799009 136.458769 
L 454.799009 134.808615 
L 450.604801 135.662479 
L 450.604801 135.473249 
L 448.507698 135.906841 
L 448.507698 135.525521 
L 446.410594 135.965126 
L 446.410594 135.383627 
L 444.31349 135.830547 
L 444.31349 135.63434 
L 440.119282 136.542781 
L 438.022178 136.80887 
L 438.022178 136.414597 
L 433.82797 137.35611 
L 433.82797 137.158764 
L 431.730866 137.637548 
L 431.730866 137.43966 
L 429.633762 137.924398 
L 427.536658 138.216817 
L 425.439555 138.71244 
L 425.439555 138.514971 
L 423.342451 138.819028 
L 423.342451 138.417258 
L 421.245347 138.928831 
L 421.245347 137.683217 
L 414.954035 139.279043 
L 414.954035 138.205609 
L 412.856931 138.757736 
L 412.856931 138.537855 
L 408.662723 139.664082 
L 408.662723 138.315557 
L 406.565619 138.900047 
L 406.565619 136.194179 
L 404.468515 136.80887 
L 404.468515 136.546838 
L 402.371412 137.171417 
L 402.371412 136.098989 
L 400.274308 136.740827 
L 400.274308 136.466442 
L 396.0801 137.780287 
L 393.982996 138.179955 
L 393.982996 137.906021 
L 387.691684 139.987359 
L 387.691684 139.718333 
L 385.59458 140.434334 
L 385.59458 139.33257 
L 383.497476 140.071551 
L 383.497476 139.503309 
L 381.400372 140.259846 
L 381.400372 139.972911 
L 377.206165 141.527177 
L 377.206165 141.243322 
L 375.109061 141.757755 
L 375.109061 139.315897 
L 370.914853 141.027592 
L 370.914853 140.708529 
L 368.817749 141.590684 
L 368.817749 136.555342 
L 364.623541 138.514971 
L 364.623541 138.114168 
L 360.429333 140.164671 
L 360.429333 138.95119 
L 358.332229 140.028421 
L 358.332229 139.190407 
L 356.235126 139.880192 
L 356.235126 139.001183 
L 354.138022 140.164671 
L 354.138022 138.315557 
L 347.84671 142.082272 
L 347.84671 141.147745 
L 343.652502 143.862901 
L 343.652502 141.937795 
L 341.555398 143.400622 
L 341.555398 141.852994 
L 339.458294 143.400622 
L 339.458294 141.175906 
L 337.36119 142.835615 
L 337.36119 142.252382 
L 335.264087 143.984154 
L 335.264087 143.400622 
L 333.166983 145.210561 
L 333.166983 139.910871 
L 331.069879 141.976804 
L 331.069879 138.757736 
L 328.972775 141.027592 
L 328.972775 140.164671 
L 326.875671 142.572821 
L 326.875671 131.535469 
L 322.681463 137.659419 
L 320.584359 141.027592 
L 318.487255 144.628052 
L 318.487255 139.129167 
L 316.390151 143.400622 
L 314.293047 148.043508 
L 312.195944 153.108475 
L 312.195944 145.494473 
L 310.09884 152.299487 
L 310.09884 148.485688 
L 308.001736 157.091184 
L 308.001736 122.043346 
L 305.904632 143.400622 
L 305.904632 36.614242 
L 303.807528 36.614242 
L 303.807528 36.614242 
" clip-path="url(#pfed5ccccf3)" style="fill: none; stroke: #2b6cb0; stroke-width: 1.5; stroke-linecap: square"/>
   </g>
   <g id="line2d_33">
    <path d="M 509.323711 164.506549 
L 509.323711 164.261742 
L 507.226607 164.396676 
L 507.226607 164.287841 
L 507.226607 163.8524 
L 505.129503 163.992069 
L 505.129503 163.892594 
L 505.129503 163.230619 
L 500.935295 163.469524 
L 500.935295 163.415299 
L 500.935295 163.21319 
L 498.838191 163.362657 
L 498.838191 163.269822 
L 498.838191 162.170782 
L 496.741087 162.330524 
L 496.741087 162.22383 
L 496.741087 162.115761 
L 490.449776 162.496104 
L 490.449776 162.431398 
L 486.255568 162.697109 
L 486.255568 162.654103 
L 486.255568 162.479789 
L 484.158464 162.647834 
L 484.158464 162.537967 
L 484.158464 161.749831 
L 482.06136 161.926327 
L 482.06136 161.829478 
L 482.06136 161.276527 
L 479.964256 161.459316 
L 479.964256 161.355854 
L 479.964256 159.921003 
L 477.867152 160.117979 
L 477.867152 160.027073 
L 477.867152 159.100977 
L 475.770048 159.307531 
L 475.770048 159.20742 
L 475.770048 158.65582 
L 473.672944 158.868807 
L 473.672944 158.762874 
L 473.672944 158.69163 
L 469.478737 159.087825 
L 469.478737 159.017103 
L 469.478737 158.432709 
L 463.187425 159.067869 
L 463.187425 158.994197 
L 463.187425 158.769877 
L 461.090321 158.998633 
L 461.090321 158.923455 
L 461.090321 158.733012 
L 458.993217 158.965177 
L 458.993217 158.888723 
L 458.993217 158.49753 
L 456.896113 158.735119 
L 456.896113 158.65582 
L 456.896113 158.5357 
L 454.799009 158.776176 
L 454.799009 158.696097 
L 454.799009 158.410756 
L 452.701905 158.65582 
L 452.701905 158.573637 
L 452.701905 158.022824 
L 450.604801 158.275233 
L 450.604801 158.188715 
L 450.604801 157.282076 
L 446.410594 157.763703 
L 446.410594 157.717038 
L 446.410594 157.336205 
L 444.31349 157.606882 
L 444.31349 157.510534 
L 444.31349 157.413315 
L 442.216386 157.687236 
L 442.216386 157.590157 
L 442.216386 157.091184 
L 440.119282 157.372672 
L 440.119282 157.271154 
L 440.119282 156.088113 
L 438.022178 156.384574 
L 438.022178 156.328327 
L 438.022178 156.214988 
L 435.925074 156.514739 
L 435.925074 156.458253 
L 435.925074 156.28708 
L 433.82797 156.590818 
L 433.82797 156.533807 
L 433.82797 155.329396 
L 431.730866 155.648523 
L 431.730866 155.585591 
L 431.730866 155.52232 
L 427.536658 156.106359 
L 427.536658 155.72592 
L 425.439555 156.056786 
L 425.439555 155.992888 
L 425.439555 155.128606 
L 423.342451 155.472126 
L 423.342451 155.403743 
L 423.342451 155.33496 
L 419.148243 155.963726 
L 419.148243 155.265776 
L 414.954035 155.918903 
L 414.954035 155.77689 
L 412.856931 156.144676 
L 412.856931 156.073929 
L 412.856931 155.859033 
L 410.759827 156.232842 
L 410.759827 156.161259 
L 410.759827 155.722128 
L 402.371412 157.198211 
L 402.371412 154.924332 
L 398.177204 155.697236 
L 398.177204 155.440263 
L 396.0801 155.878736 
L 396.0801 155.793116 
L 396.0801 155.355324 
L 393.982996 155.805101 
L 393.982996 155.716922 
L 393.982996 155.538538 
L 391.885892 155.995939 
L 391.885892 155.907135 
L 391.885892 155.727455 
L 387.691684 156.573745 
L 387.691684 156.39579 
L 383.497476 157.267127 
L 383.497476 157.091184 
L 381.400372 157.580928 
L 381.400372 157.493519 
L 381.400372 157.13663 
L 379.303269 157.638806 
L 379.303269 157.549445 
L 379.303269 155.907135 
L 377.206165 156.446922 
L 377.206165 156.344426 
L 377.206165 156.240994 
L 373.011957 157.343545 
L 373.011957 157.243301 
L 373.011957 155.02363 
L 370.914853 155.630857 
L 370.914853 155.388731 
L 366.720645 156.632443 
L 366.720645 156.514739 
L 366.720645 155.781652 
L 364.623541 156.43284 
L 364.623541 156.308866 
L 360.429333 157.638806 
L 360.429333 157.519492 
L 360.429333 156.382496 
L 358.332229 157.091184 
L 358.332229 156.695312 
L 356.235126 157.423076 
L 356.235126 155.578017 
L 352.040918 157.1642 
L 352.040918 157.017678 
L 347.84671 158.65582 
L 347.84671 158.516503 
L 345.749606 159.357208 
L 345.749606 151.349123 
L 343.652502 152.473975 
L 343.652502 152.21138 
L 341.555398 153.367351 
L 341.555398 152.018471 
L 339.458294 153.246175 
L 339.458294 152.686395 
L 337.36119 153.961913 
L 337.36119 152.506438 
L 335.264087 153.869875 
L 335.264087 152.950624 
L 333.166983 154.386875 
L 333.166983 151.689976 
L 331.069879 153.28825 
L 331.069879 152.926168 
L 328.972775 154.587767 
L 328.972775 152.710204 
L 326.875671 154.524204 
L 326.875671 153.734788 
L 322.681463 157.638806 
L 320.584359 159.69007 
L 320.584359 155.750068 
L 316.390151 160.819677 
L 316.390151 147.355673 
L 314.293047 151.614959 
L 314.293047 149.333199 
L 312.195944 154.234023 
L 312.195944 145.494473 
L 310.09884 152.299487 
L 308.001736 160.011837 
L 305.904632 168.825951 
L 305.904632 36.614242 
L 303.807528 36.614242 
L 303.807528 36.614242 
" clip-path="url(#pfed5ccccf3)" style="fill: none; stroke: #b7791f; stroke-width: 1.5; stroke-linecap: square"/>
   </g>
   <g id="line2d_34">
    <path d="M 509.323711 164.506549 
L 509.323711 153.945058 
L 507.226607 154.156085 
L 507.226607 154.06641 
L 507.226607 152.588743 
L 505.129503 152.810916 
L 505.129503 152.760657 
L 505.129503 151.713335 
L 503.032399 151.943533 
L 503.032399 151.834888 
L 503.032399 151.559419 
L 500.935295 151.737645 
L 500.935295 151.626158 
L 500.935295 147.355673 
L 498.838191 147.618094 
L 498.838191 147.543562 
L 498.838191 146.856492 
L 494.643983 147.316993 
L 494.643983 143.691593 
L 492.54688 143.984154 
L 492.54688 143.888231 
L 492.54688 143.499225 
L 488.352672 143.997194 
L 488.352672 143.601727 
L 486.255568 143.904807 
L 486.255568 143.805116 
L 486.255568 140.998475 
L 484.158464 141.319657 
L 484.158464 135.880455 
L 482.06136 136.231219 
L 482.06136 136.07957 
L 479.964256 136.433539 
L 479.964256 135.974231 
L 477.867152 136.332932 
L 477.867152 135.38836 
L 475.770048 135.59344 
L 475.770048 133.566857 
L 473.672944 133.945578 
L 473.672944 133.230491 
L 471.575841 133.615416 
L 471.575841 133.066456 
L 467.381633 133.850621 
L 467.381633 133.480576 
L 463.187425 134.281124 
L 463.187425 132.353755 
L 456.896113 133.005488 
L 456.896113 132.594858 
L 454.799009 133.025264 
L 454.799009 132.398389 
L 452.701905 132.83576 
L 452.701905 132.624015 
L 450.604801 133.066456 
L 448.507698 133.301445 
L 448.507698 129.627505 
L 446.410594 130.097269 
L 446.410594 128.569181 
L 442.216386 129.537127 
L 442.216386 129.27544 
L 440.119282 129.768318 
L 440.119282 129.238988 
L 433.82797 130.757426 
L 433.82797 129.679467 
L 431.730866 130.202306 
L 431.730866 129.926635 
L 429.633762 130.456819 
L 429.633762 129.898896 
L 427.536658 130.438114 
L 427.536658 129.870184 
L 423.342451 130.973805 
L 423.342451 129.206114 
L 421.245347 129.777668 
L 421.245347 129.471964 
L 419.148243 130.052325 
L 419.148243 129.744502 
L 417.051139 130.333934 
L 417.051139 128.743668 
L 414.954035 129.349783 
L 414.954035 126.591655 
L 410.759827 127.858943 
L 410.759827 126.376707 
L 408.662723 127.031907 
L 408.662723 121.58405 
L 402.371412 123.690739 
L 402.371412 122.284671 
L 398.177204 123.761748 
L 398.177204 123.281449 
L 396.0801 124.041688 
L 396.0801 123.060359 
L 391.885892 124.632107 
L 391.885892 124.133355 
L 387.691684 125.769226 
L 387.691684 124.755381 
L 385.59458 125.084512 
L 383.497476 125.951867 
L 383.497476 124.344467 
L 379.303269 126.153338 
L 379.303269 125.602892 
L 373.011957 128.473494 
L 373.011957 127.924335 
L 370.914853 128.927743 
L 370.914853 128.371428 
L 366.720645 130.456819 
L 366.720645 123.522638 
L 360.429333 127.045951 
L 360.429333 124.850875 
L 358.332229 126.111399 
L 358.332229 125.344954 
L 356.235126 126.649818 
L 354.138022 127.220868 
L 349.943814 130.052325 
L 349.943814 126.789408 
L 347.84671 128.3178 
L 347.84671 125.602892 
L 345.749606 127.220868 
L 345.749606 124.233836 
L 343.652502 125.951867 
L 343.652502 113.014254 
L 341.555398 114.924254 
L 341.555398 113.281387 
L 339.458294 115.298943 
L 339.458294 113.577399 
L 337.36119 115.715264 
L 337.36119 111.992863 
L 335.264087 114.277064 
L 335.264087 107.805162 
L 333.166983 110.260021 
L 333.166983 107.805162 
L 331.069879 110.441863 
L 331.069879 107.805162 
L 328.972775 110.652799 
L 326.875671 113.737739 
L 326.875671 107.805162 
L 324.778567 111.195206 
L 324.778567 107.805162 
L 322.681463 107.805162 
L 320.584359 111.992863 
L 320.584359 107.805162 
L 318.487255 112.551224 
L 318.487255 107.805162 
L 316.390151 113.281387 
L 316.390151 84.074855 
L 314.293047 90.007432 
L 312.195944 97.635031 
L 312.195944 84.074855 
L 310.09884 93.566978 
L 310.09884 36.614242 
L 303.807528 36.614242 
L 303.807528 36.614242 
" clip-path="url(#pfed5ccccf3)" style="fill: none; stroke: #237a57; stroke-width: 1.5; stroke-linecap: square"/>
   </g>
   <g id="line2d_35">
    <path d="M 293.531719 164.506549 
L 519.59952 164.506549 
" clip-path="url(#pfed5ccccf3)" style="fill: none; stroke-dasharray: 2.96,1.28; stroke-dashoffset: 0; stroke: #a0aec0; stroke-width: 0.8"/>
   </g>
   <g id="patch_6">
    <path d="M 293.531719 178.996082 
L 293.531719 33.766605 
" style="fill: none; stroke: #000000; stroke-width: 0.8; stroke-linejoin: miter; stroke-linecap: square"/>
   </g>
   <g id="patch_7">
    <path d="M 293.531719 178.996082 
L 519.59952 178.996082 
" style="fill: none; stroke: #000000; stroke-width: 0.8; stroke-linejoin: miter; stroke-linecap: square"/>
   </g>
   <g id="text_34">
    <text style="font-size: 8.4px; font-family: 'Arial', 'Helvetica', 'DejaVu Sans', sans-serif; text-anchor: middle" x="406.565619" y="27.766605" transform="rotate(-0 406.565619 27.766605)">b  Precision-recall (baseline = 0.102)</text>
   </g>
   <g id="legend_2">
    <g id="text_35">
     <text style="font-size: 6px; font-family: 'Arial', 'Helvetica', 'DejaVu Sans', sans-serif; text-anchor: start" x="462.833895" y="43.461292" transform="rotate(-0 462.833895 43.461292)">Average precision</text>
    </g>
    <g id="line2d_36">
     <path d="M 459.386707 49.991917 
L 465.386707 49.991917 
L 471.386707 49.991917 
" style="fill: none; stroke: #2b6cb0; stroke-width: 1.5; stroke-linecap: square"/>
    </g>
    <g id="text_36">
     <text style="font-size: 6px; font-family: 'Arial', 'Helvetica', 'DejaVu Sans', sans-serif; text-anchor: start" x="476.186707" y="52.091917" transform="rotate(-0 476.186707 52.091917)">ML (0.277)</text>
    </g>
    <g id="line2d_37">
     <path d="M 459.386707 58.622542 
L 465.386707 58.622542 
L 471.386707 58.622542 
" style="fill: none; stroke: #b7791f; stroke-width: 1.5; stroke-linecap: square"/>
    </g>
    <g id="text_37">
     <text style="font-size: 6px; font-family: 'Arial', 'Helvetica', 'DejaVu Sans', sans-serif; text-anchor: start" x="476.186707" y="60.722542" transform="rotate(-0 476.186707 60.722542)">Graph (0.164)</text>
    </g>
    <g id="line2d_38">
     <path d="M 459.386707 67.253167 
L 465.386707 67.253167 
L 471.386707 67.253167 
" style="fill: none; stroke: #237a57; stroke-width: 1.5; stroke-linecap: square"/>
    </g>
    <g id="text_38">
     <text style="font-size: 6px; font-family: 'Arial', 'Helvetica', 'DejaVu Sans', sans-serif; text-anchor: start" x="476.186707" y="69.353167" transform="rotate(-0 476.186707 69.353167)">Hybrid (0.385)</text>
    </g>
   </g>
  </g>
  <g id="text_39">
   <text style="font-size: 9px; font-family: 'Arial', 'Helvetica', 'DejaVu Sans', sans-serif; text-anchor: start" x="9.38376" y="13.751719" transform="rotate(-0 9.38376 13.751719)">iTE to TG transfer backtest: iTE-known links adopted by TG in 2023-2026</text>
  </g>
 </g>
 <defs>
  <clipPath id="p2e98bf9c30">
   <rect x="34.331719" y="33.766605" width="226.067801" height="145.229478"/>
  </clipPath>
  <clipPath id="pfed5ccccf3">
   <rect x="293.531719" y="33.766605" width="226.067801" height="145.229478"/>
  </clipPath>
 </defs>
</svg>
